<svg xmlns="http://www.w3.org/2000/svg" width="100" height="30.243" viewBox="0 0 100 30.243">
  <path id="Path_1" data-name="Path 1" d="M276.294,164.418c0-.06-.006-.126-.006-.2v-5.973a.587.587,0,0,1,.025-.193.733.733,0,0,1,.224-.36.708.708,0,0,1,.394-.17,2.218,2.218,0,0,1,1.007.334.491.491,0,0,1,.158.388c0,.375-.2.527-.347.824a.3.3,0,0,0,.06.347.249.249,0,0,0,.376-.05c.237-.284.29-.552.678-.71a.493.493,0,0,1,.379.006,2.894,2.894,0,0,1,1.028,1.367c.054.284-.757.508-.959.587-.246.133-.107.641.2.521s.824-.461,1.1-.19a.729.729,0,0,1,.164.474.933.933,0,0,1-.218.7.893.893,0,0,1-.527.189c-.054.01-.1.01-.133.016a.316.316,0,0,0-.268.309.242.242,0,0,0,.256.268c.113,0,.3-.032.375.028s-.035.316-.079.42c-.483,1.082-2.714,1.022-3.636,1.06Zm-.95,0c0-.06.006-.126.006-.2v-5.973a.588.588,0,0,0-.025-.193.672.672,0,0,0-.224-.36.68.68,0,0,0-.388-.17,2.254,2.254,0,0,0-1.013.334.506.506,0,0,0-.151.388c0,.375.189.527.341.824a.305.305,0,0,1-.054.347.252.252,0,0,1-.379-.05c-.234-.284-.284-.552-.678-.71a.5.5,0,0,0-.382.006,3,3,0,0,0-1.029,1.367c-.051.284.764.508.969.587.243.133.1.641-.2.521s-.815-.461-1.1-.19a.812.812,0,0,0-.167.474,1,1,0,0,0,.218.7.913.913,0,0,0,.527.189c.054.01.1.01.139.016a.319.319,0,0,1,.271.309.255.255,0,0,1-.265.268c-.1,0-.287-.032-.369.028s.028.316.073.42c.483,1.082,2.714,1.022,3.642,1.06Zm-.243,1.326h1.581a9.591,9.591,0,0,0,3.411-.678c6.261-2.847-2.048-12.023-4.207-14.75-2.162,2.726-10.464,11.9-4.194,14.75A9.554,9.554,0,0,0,275.1,165.743ZM219.207,171.1c1.638-1.818,3.218-4.286,3.218-6.813,0-.306.025-.988-.435-.988-.281,0-.577.552-1.092,1.916A37.47,37.47,0,0,0,219.207,171.1Zm37.294-9.316a4.757,4.757,0,0,1-.852,2.219,2.779,2.779,0,0,1-2.184.685l-22.592.1a4.741,4.741,0,0,0-2.527.612,1.877,1.877,0,0,0-.975,1.691,1.8,1.8,0,0,0,1.24,1.6c.275.123.42.243.42.347a1.236,1.236,0,0,1-.46.776,2.9,2.9,0,0,1-1.054.7,1.876,1.876,0,0,1-1.54-1.969,6.2,6.2,0,0,1,.868-2.73,7.676,7.676,0,0,1,2.3-2.682,5.473,5.473,0,0,1,3.222-1.026c7.908,0,14.532.035,22.44.035A2.468,2.468,0,0,0,256.5,161.786Zm-7.539,14.056a25.3,25.3,0,0,1-2.594,2.247,2.716,2.716,0,0,1-1.5.511c-1.189,0-1.751-1.045-1.685-3.152a11.654,11.654,0,0,1-2.089,2.386,3.115,3.115,0,0,1-1.978.767,2.077,2.077,0,0,1-1.7-.928,3.778,3.778,0,0,1-.7-2.3,6.07,6.07,0,0,1,.943-3.232,7.532,7.532,0,0,1,2.4-2.5,4.923,4.923,0,0,1,2.581-.947,1.991,1.991,0,0,1,1.982,1.3l2.31-1.288h.631l-.994,3.323a14.4,14.4,0,0,0-.764,3.433c0,.654.224.975.688.975a1.577,1.577,0,0,0,.972-.467c.357-.316.852-.789,1.5-1.442v.013a15.079,15.079,0,0,0,1.335-1.692,1.381,1.381,0,0,1-.975-1.284,3.656,3.656,0,0,1,.6-1.862,1.855,1.855,0,0,1,1.638-1c.593,0,.88.309.88.912a6.531,6.531,0,0,1-.5,2.042c1.243-.142,2.338-1.1,3.278-2.887l1.029-.038-1.048,2.9c-.442,1.218-.726,2.055-.852,2.5a4.459,4.459,0,0,0-.2,1.171,1.136,1.136,0,0,0,.224.751.714.714,0,0,0,.6.29,1.36,1.36,0,0,0,.776-.275c.224-.167.7-.609,1.436-1.306.2-.723.388-1.4.552-1.982a23.24,23.24,0,0,1,1.411-3.588l2.736-.533a25.987,25.987,0,0,0-1.139,3.575c2.023-2.364,3.591-3.541,4.664-3.541a1.143,1.143,0,0,1,.959.474,2.014,2.014,0,0,1,.369,1.268,11.533,11.533,0,0,1-.117,1.338,25.263,25.263,0,0,1,2.751-2.509,2.7,2.7,0,0,1,1.534-.571,1.246,1.246,0,0,1,1.022.492,1.988,1.988,0,0,1,.4,1.265,10.062,10.062,0,0,1-.672,3.121,9.667,9.667,0,0,0-.672,2.506c0,.429.158.641.461.641a1.6,1.6,0,0,0,.824-.388c2.158-1.593,2.521-5.551,2.66-8.163a10.459,10.459,0,0,1-3.787-.805,4.559,4.559,0,0,1-2.872-3.831,10.746,10.746,0,0,1,.988-5.1,43.193,43.193,0,0,1,6.113-9.622.694.694,0,0,1,.941-.091c.034.031.072.066.107.1a43.712,43.712,0,0,1,6.1,9.609,10.642,10.642,0,0,1,.988,5.1,4.582,4.582,0,0,1-2.872,3.831,10.79,10.79,0,0,1-3.673.8c-.167,4.124-2.036,10.436-7.23,10.436a1.469,1.469,0,0,1-1.187-.511,2.1,2.1,0,0,1-.448-1.382,10.505,10.505,0,0,1,.618-3.108,11.672,11.672,0,0,0,.612-2.294c0-.243-.123-.36-.382-.36a.584.584,0,0,0-.268.085,2.67,2.67,0,0,0-.375.224,5.414,5.414,0,0,0-.474.388c-.164.145-.337.322-.514.514-.2.205-.394.414-.587.644a2.638,2.638,0,0,0-.6,1l-.369,1.616-.678,2.676-2.885.511,1.1-4.658c.085-.344.183-.846.29-1.5a10.425,10.425,0,0,0,.17-1.187c0-.249-.079-.388-.249-.388a.5.5,0,0,0-.237.085,3.915,3.915,0,0,0-.376.23c-.164.132-.344.277-.533.435-.211.183-.429.388-.666.625-.25.252-.5.527-.764.83-1.159,1.225-1.187,3.272-1.521,5.011l-3.055.685a18.427,18.427,0,0,1,.4-2.3c-1.572,1.426-2.825,2.152-3.727,2.152a1.462,1.462,0,0,1-1.165-.587,2.2,2.2,0,0,1-.467-1.436,8.785,8.785,0,0,1,1.7-4.285,6.345,6.345,0,0,1-1.837.6A13.145,13.145,0,0,1,248.962,175.841Zm-12-6.946-.2,1.976a1.777,1.777,0,0,1-.745.492c-.382.151-1.048.35-1.994.609a7.82,7.82,0,0,1-2,4.778,5.713,5.713,0,0,1-4.292,2.076,4.6,4.6,0,0,1-3.7-1.805,5.584,5.584,0,0,1-.8-1.323,18.683,18.683,0,0,1-2.4,1.83,4.436,4.436,0,0,1-2.183.663,2.356,2.356,0,0,1-1.931-.928,3.474,3.474,0,0,1-.678-1.666c-1.092.849-2.329,1.278-3.522.328a5.291,5.291,0,0,1-3.9,2.357,2.677,2.677,0,0,1-2.622-2.638c-1.079.821-2.3,1.212-3.468.281a5.259,5.259,0,0,1-3.9,2.357A2.682,2.682,0,0,1,196,175.64a8.527,8.527,0,0,1-6.327,2.691,6.045,6.045,0,0,1-4.405-1.679,5.8,5.8,0,0,1-1.713-4.327,11.213,11.213,0,0,1,4.478-8.867,6.892,6.892,0,0,1,3.944-1.423,3.693,3.693,0,0,1,2.648.975,3.364,3.364,0,0,1,1.019,2.54,5.442,5.442,0,0,1-1.237,3.575,3.65,3.65,0,0,1-2.885,1.474,2.264,2.264,0,0,1-1.435-.439,1.417,1.417,0,0,1-.559-1.145,1.63,1.63,0,0,1,.486-1.127,1.09,1.09,0,0,0,.975.663,2.091,2.091,0,0,0,1.666-1.123,4.424,4.424,0,0,0,.77-2.521,2.343,2.343,0,0,0-.432-1.477,1.362,1.362,0,0,0-1.142-.552,3.2,3.2,0,0,0-2.225,1.309,11.612,11.612,0,0,0-2.758,7.265,5.546,5.546,0,0,0,1.331,3.831,4.286,4.286,0,0,0,3.37,1.5,4.614,4.614,0,0,0,2.329-.594,9.058,9.058,0,0,0,2.108-1.83,7.01,7.01,0,0,1,.2-1.029c.77-2.739,3.093-4.951,5.188-4.951s3.184,2.212,2.417,4.951a7.392,7.392,0,0,1-.758,1.793,2.087,2.087,0,0,0,.685.4,1.449,1.449,0,0,0,1.158-.183,6.514,6.514,0,0,0,1.092-.962,6.759,6.759,0,0,1,.217-1.048c.757-2.739,3.083-4.951,5.188-4.951s3.175,2.212,2.411,4.951a7.785,7.785,0,0,1-.764,1.793,2.049,2.049,0,0,0,.691.4,1.43,1.43,0,0,0,1.152-.183,6.525,6.525,0,0,0,1.1-.969,18.233,18.233,0,0,1,.755-5.043c.5-1.6,2.01-6.185,4.162-7.157,1.546-.587,2.307,1.013,2.307,2.243,0,3.358-2.143,5.958-4.295,8.3-.067.776-.092,1.31-.092,1.594a2.9,2.9,0,0,0,.354,1.543,1.081,1.081,0,0,0,.95.565,2.433,2.433,0,0,0,1.291-.435,22.028,22.028,0,0,0,1.956-1.612,4.725,4.725,0,0,1,.474-.461c.091-.091.189-.17.274-.243a1.726,1.726,0,0,1,.884-.461c.192,0,.309.06.353.205a4.377,4.377,0,0,1,.076,1.057c.006,1.218.965,3.225,2.427,3.225,1.53,0,2.5-1.578,2.931-4.731a8.459,8.459,0,0,0-2.37.976l.486-1.531a6.559,6.559,0,0,1,2.057-1.218,10.12,10.12,0,0,1,.609-2.9c.817-1.963,1.527-2.692,3.49-2.784a10.163,10.163,0,0,0-.72,1.935,18.035,18.035,0,0,0-.189,2.568A23.31,23.31,0,0,0,236.964,168.9Zm3.708,7.571c.751,0,1.461-.65,2.133-1.934a7.768,7.768,0,0,0,1-3.557,1.57,1.57,0,0,0-.275-1,.943.943,0,0,0-.761-.354c-.76,0-1.473.638-2.152,1.922a7.677,7.677,0,0,0-1.013,3.55,1.564,1.564,0,0,0,.3.991A.956.956,0,0,0,240.672,176.466Zm-37.742-3.633c.085-.968-.915-1.773-1.111-.546a3.248,3.248,0,0,0,.565,2.061A8.561,8.561,0,0,0,202.93,172.834Zm-.672-3.386a3.391,3.391,0,0,0-1.408,2.676,4.819,4.819,0,0,0,1.019,3.13c-.638.937-1.407,1.508-2.061,1.439-1.048-.1-1.41-1.824-.795-3.846s1.963-3.563,3.007-3.465A.6.6,0,0,1,202.258,169.448Zm10.66,3.386c.227-.968-.921-1.659-1.1-.546a3.224,3.224,0,0,0,.559,2.061A7.671,7.671,0,0,0,212.918,172.834Zm-.669-3.386a3.383,3.383,0,0,0-1.411,2.676,4.853,4.853,0,0,0,1.019,3.13c-.631.937-1.4,1.508-2.06,1.439-1.045-.1-1.4-1.824-.8-3.846s1.963-3.563,3.007-3.465A.613.613,0,0,1,212.249,169.448Z" transform="translate(-183.551 -148.585)" fill="#ededed" fill-rule="evenodd"/>
</svg>
