<svg xmlns="http://www.w3.org/2000/svg" width="100" height="31.417" viewBox="0 0 100 31.417"><g transform="translate(-0.003 0)"><g transform="translate(0.002 0)"><path d="M58.254,44.4H55.323l-1.073,4Z" transform="translate(-47.444 -38.829)" fill="#ededed"/><path d="M31.861,145.467l-3.71-6.417-1.23,4.592c-.041.154-.069.3-.1.454.147.048.29.1.444.141Z" transform="translate(-23.455 -121.603)" fill="#ededed"/><path d="M70.535,1.518c.105-.105.21-.2.316-.3A4.814,4.814,0,0,0,67.885,0a3.225,3.225,0,0,0-.842.11c-1.409.376-2.481,1.691-3.019,3.7L63.66,5.166h3.227Z" transform="translate(-55.673 0)" fill="#ededed"/><path d="M94,15.529h7.4l-3.361-3.361c-.113-.113-.227-.216-.34-.317-.117.1-.232.2-.346.317Z" transform="translate(-82.206 -10.363)" fill="#ededed"/><path d="M16.215,44.39h-1.4c-2.079,0-3.626.7-4.355,1.96S9.9,49.3,10.938,51.1l.7,1.216,3.35-3.35Z" transform="translate(-8.756 -38.82)" fill="#ededed"/><path d="M87,209.906l.7,1.216c1.04,1.8,2.415,2.792,3.875,2.792s2.834-.991,3.875-2.792l.7-1.216-4.576-1.226Z" transform="translate(-76.084 -182.497)" fill="#ededed"/><path d="M4.412,115.615,2.8,112.82l-.992.992c-1.471,1.471-2.072,3.056-1.694,4.465a4.314,4.314,0,0,0,2.871,2.748c.03-.143.055-.282.094-.428Z" transform="translate(-0.002 -98.664)" fill="#ededed"/><path d="M213.135,120.6c.039.146.064.285.094.428a4.314,4.314,0,0,0,2.871-2.748c.376-1.409-.225-2.995-1.694-4.465l-.992-.992-1.614,2.794Z" transform="translate(-185.226 -98.664)" fill="#ededed"/><path d="M27.581,87.1,24.65,90.031l1.465,2.538Z" transform="translate(-21.557 -76.172)" fill="#ededed"/><path d="M183.7,139.05l-3.7,6.417,4.592-1.23c.156-.041.3-.093.444-.141-.031-.151-.059-.3-.1-.454Z" transform="translate(-157.416 -121.603)" fill="#ededed"/><path d="M166.454,183.988l-1.614,2.794,1.356.364c2.008.538,3.683.266,4.714-.765a4.311,4.311,0,0,0,.945-3.851c-.136.043-.275.084-.418.125Z" transform="translate(-144.158 -159.628)" fill="#ededed"/><path d="M129.72,196.8l4,1.073,1.464-2.538Z" transform="translate(-113.444 -170.822)" fill="#ededed"/><path d="M200.406,92.578l1.464-2.538-2.93-2.93Z" transform="translate(-173.979 -76.18)" fill="#ededed"/><path d="M73.65,195.33l1.465,2.538,4-1.073Z" transform="translate(-64.409 -170.822)" fill="#ededed"/><path d="M164.794,48.4l-1.073-4H160.79Z" transform="translate(-140.616 -38.829)" fill="#ededed"/><path d="M26.029,182.635c-.143-.039-.282-.08-.419-.125a4.327,4.327,0,0,0,.945,3.851c1.031,1.031,2.706,1.3,4.715.765l1.355-.364-1.614-2.792Z" transform="translate(-22.325 -159.61)" fill="#ededed"/><path d="M129.934,5.176h3.227L132.8,3.82c-.538-2.008-1.611-3.321-3.02-3.7a4.312,4.312,0,0,0-3.808,1.107c.107.1.212.2.316.3Z" transform="translate(-110.165 -0.01)" fill="#ededed"/><path d="M192.071,52.317l.7-1.216c1.039-1.8,1.21-3.488.481-4.752s-2.276-1.96-4.355-1.96H187.49l1.227,4.577Z" transform="translate(-163.966 -38.82)" fill="#ededed"/><path d="M69.25,194.15l1.612,2.794.405-.108L69.8,194.3Z" transform="translate(-60.561 -169.79)" fill="#ededed"/><path d="M353.789,147.206a.448.448,0,0,1,.154.029.453.453,0,0,1,.147.1l.857.9a3.562,3.562,0,0,1-1.41,1.11,4.955,4.955,0,0,1-2.008.376,4.781,4.781,0,0,1-1.9-.364,4.115,4.115,0,0,1-1.425-1,4.419,4.419,0,0,1-.9-1.506,5.581,5.581,0,0,1-.31-1.9,5.009,5.009,0,0,1,.358-1.916,4.457,4.457,0,0,1,1-1.506,4.517,4.517,0,0,1,1.524-.985,5.36,5.36,0,0,1,1.976-.351,5.08,5.08,0,0,1,.989.092,4.975,4.975,0,0,1,.866.251,4.152,4.152,0,0,1,.742.39,3.6,3.6,0,0,1,.6.5l-.73.979a.888.888,0,0,1-.166.163.433.433,0,0,1-.268.074.481.481,0,0,1-.217-.051,2.242,2.242,0,0,1-.218-.125l-.251-.161a1.929,1.929,0,0,0-.326-.159,2.654,2.654,0,0,0-.442-.125,2.926,2.926,0,0,0-.591-.051,2.72,2.72,0,0,0-1.075.207,2.361,2.361,0,0,0-.834.6,2.74,2.74,0,0,0-.543.936,3.662,3.662,0,0,0-.2,1.235,3.816,3.816,0,0,0,.2,1.272,2.784,2.784,0,0,0,.531.937,2.241,2.241,0,0,0,.783.578,2.332,2.332,0,0,0,.96.2,4.67,4.67,0,0,0,.537-.029,2.3,2.3,0,0,0,.45-.1,2.113,2.113,0,0,0,.4-.183,2.646,2.646,0,0,0,.376-.277.77.77,0,0,1,.166-.105A.423.423,0,0,1,353.789,147.206Z" transform="translate(-303.459 -122.606)" fill="#ededed"/><path d="M435.9,150.32h-1.675a.781.781,0,0,1-.464-.125.674.674,0,0,1-.251-.336l-.55-1.625h-3.546l-.55,1.625a.743.743,0,0,1-.7.467H426.47L430.077,141h2.212Zm-5.986-3.562h2.546l-.857-2.552-.2-.571c-.074-.22-.148-.458-.22-.714q-.1.391-.212.723c-.072.222-.141.414-.2.576Z" transform="translate(-372.961 -123.309)" fill="#ededed"/><path d="M524.052,146.863v3.448H521.89v-9.32h3.031a6.2,6.2,0,0,1,1.724.208,3.234,3.234,0,0,1,1.164.578,2.2,2.2,0,0,1,.655.878,3.069,3.069,0,0,1,.083,1.957,2.594,2.594,0,0,1-.36.745,2.824,2.824,0,0,1-.589.611,3.149,3.149,0,0,1-.8.442,2.036,2.036,0,0,1,.406.268,1.594,1.594,0,0,1,.329.39l1.982,3.242h-1.957a.828.828,0,0,1-.78-.409l-1.547-2.706a.644.644,0,0,0-.24-.251.8.8,0,0,0-.388-.078Zm0-1.489h.87a2.238,2.238,0,0,0,.753-.112,1.366,1.366,0,0,0,.509-.311,1.186,1.186,0,0,0,.287-.463,1.8,1.8,0,0,0,.089-.572,1.2,1.2,0,0,0-.4-.96,1.866,1.866,0,0,0-1.238-.345h-.87Z" transform="translate(-456.409 -123.3)" fill="#ededed"/><path d="M609.994,141v1.662h-3.824v2.177h2.93v1.6h-2.93v2.216h3.824v1.662H604V141Z" transform="translate(-528.216 -123.309)" fill="#ededed"/><path d="M355.448,39.763a4.893,4.893,0,0,1-.348,1.864,4.356,4.356,0,0,1-.982,1.477,4.434,4.434,0,0,1-1.526.972,5.4,5.4,0,0,1-1.979.349H347V35.107h3.614a5.35,5.35,0,0,1,1.979.351,4.509,4.509,0,0,1,1.526.972A4.333,4.333,0,0,1,355.1,37.9,4.874,4.874,0,0,1,355.448,39.763Zm-2.212,0a4.061,4.061,0,0,0-.179-1.247,2.67,2.67,0,0,0-.514-.944,2.227,2.227,0,0,0-.823-.6,2.8,2.8,0,0,0-1.105-.208h-1.445v6h1.445a2.8,2.8,0,0,0,1.105-.208,2.227,2.227,0,0,0,.823-.595,2.67,2.67,0,0,0,.514-.944,4.091,4.091,0,0,0,.179-1.253Z" transform="translate(-303.462 -30.701)" fill="#ededed"/><path d="M440.564,44.429H438.39V35.11h2.174Z" transform="translate(-383.385 -30.705)" fill="#ededed"/><path d="M484.4,42.191a3.671,3.671,0,0,0,.793-.077,3.919,3.919,0,0,0,.652-.2V40.5h-.921a.45.45,0,0,1-.32-.108.365.365,0,0,1-.115-.276V38.922h3.314v3.933a4.977,4.977,0,0,1-.745.452,4.892,4.892,0,0,1-.826.31,6.311,6.311,0,0,1-.934.179,9.41,9.41,0,0,1-1.065.058,4.885,4.885,0,0,1-1.893-.361,4.537,4.537,0,0,1-2.5-2.509,4.9,4.9,0,0,1-.361-1.9,5.153,5.153,0,0,1,.345-1.908,4.3,4.3,0,0,1,.987-1.506,4.484,4.484,0,0,1,1.555-.985,5.617,5.617,0,0,1,2.038-.353,5.923,5.923,0,0,1,1.093.1,5.3,5.3,0,0,1,.949.256,4.32,4.32,0,0,1,1.43.895l-.627.954a.7.7,0,0,1-.215.211.5.5,0,0,1-.271.077.753.753,0,0,1-.4-.125c-.169-.1-.331-.191-.482-.265a2.847,2.847,0,0,0-.464-.182,2.958,2.958,0,0,0-.5-.1,4.864,4.864,0,0,0-.587-.033,2.7,2.7,0,0,0-1.094.215,2.346,2.346,0,0,0-.831.6,2.732,2.732,0,0,0-.528.937,3.791,3.791,0,0,0-.186,1.218A3.913,3.913,0,0,0,481.9,40.4a2.818,2.818,0,0,0,.566.972,2.384,2.384,0,0,0,.857.6A2.761,2.761,0,0,0,484.4,42.191Z" transform="translate(-419.318 -30.028)" fill="#ededed"/><path d="M572,35.121a.627.627,0,0,1,.172.048.6.6,0,0,1,.148.1,1.784,1.784,0,0,1,.159.173l4.427,5.6c-.018-.178-.03-.353-.039-.521s-.013-.327-.013-.477V35.109h1.906v9.319h-1.129a1.035,1.035,0,0,1-.423-.077.911.911,0,0,1-.333-.281l-4.391-5.552c.014.162.024.321.033.477s.013.3.013.438v4.995h-1.9V35.109h1.138a1.8,1.8,0,0,1,.237.013Z" transform="translate(-499.024 -30.704)" fill="#ededed"/><path d="M665,42.712a1.975,1.975,0,0,0,.777-.144,1.551,1.551,0,0,0,.578-.413,1.8,1.8,0,0,0,.361-.655,2.836,2.836,0,0,0,.125-.878V35.1H669v5.521a4.307,4.307,0,0,1-.279,1.573,3.513,3.513,0,0,1-.8,1.235,3.6,3.6,0,0,1-1.255.806,4.991,4.991,0,0,1-3.345,0,3.6,3.6,0,0,1-1.255-.806,3.488,3.488,0,0,1-.793-1.235A4.357,4.357,0,0,1,661,40.621V35.1h2.162v5.514a2.873,2.873,0,0,0,.125.878,1.837,1.837,0,0,0,.361.659,1.563,1.563,0,0,0,.578.415,1.977,1.977,0,0,0,.77.146Z" transform="translate(-578.063 -30.696)" fill="#ededed"/><path d="M750.729,36.239a.787.787,0,0,1-.206.226.448.448,0,0,1-.272.077.654.654,0,0,1-.316-.093l-.384-.207a3.316,3.316,0,0,0-.489-.208,1.961,1.961,0,0,0-.627-.093,1.348,1.348,0,0,0-.906.26.878.878,0,0,0-.3.7.646.646,0,0,0,.179.467,1.521,1.521,0,0,0,.478.324,4.963,4.963,0,0,0,.665.251q.376.113.764.251a6.991,6.991,0,0,1,.764.322,2.545,2.545,0,0,1,.665.474,2.2,2.2,0,0,1,.47.7,2.489,2.489,0,0,1,.184.987,3.239,3.239,0,0,1-.225,1.21,2.821,2.821,0,0,1-.654.977,3,3,0,0,1-1.049.659,3.913,3.913,0,0,1-1.417.241,4.5,4.5,0,0,1-.886-.09,5.167,5.167,0,0,1-1.666-.64,3.328,3.328,0,0,1-.646-.5l.64-1.011a.524.524,0,0,1,.2-.186.567.567,0,0,1,.275-.07.73.73,0,0,1,.386.125c.125.082.277.171.442.269a3.442,3.442,0,0,0,.566.269,2.114,2.114,0,0,0,.753.125,1.437,1.437,0,0,0,.915-.258.984.984,0,0,0,.326-.822.779.779,0,0,0-.179-.531,1.369,1.369,0,0,0-.471-.339,4.165,4.165,0,0,0-.661-.237c-.251-.068-.5-.144-.762-.227a5.584,5.584,0,0,1-.762-.307,2.367,2.367,0,0,1-.66-.482,2.235,2.235,0,0,1-.47-.742,2.953,2.953,0,0,1-.178-1.1,2.6,2.6,0,0,1,.211-1.023,2.658,2.658,0,0,1,.62-.89,3.082,3.082,0,0,1,1-.627,3.745,3.745,0,0,1,1.363-.233,5.076,5.076,0,0,1,.836.068,4.309,4.309,0,0,1,1.452.512,3.2,3.2,0,0,1,.566.412Z" transform="translate(-651.402 -29.941)" fill="#ededed"/></g></g></svg>