<svg xmlns="http://www.w3.org/2000/svg" viewBox="0 0 30.58 36.69"><defs><style>.cls-1{fill:#ededed;}</style></defs><title>dummy-logo-1</title><g id="Layer_2" data-name="Layer 2"><g id="Layer_1-2" data-name="Layer 1"><path class="cls-1" d="M6.77,5.29A3.14,3.14,0,0,1,5.89,7.7a3.4,3.4,0,0,1-2.47.87,3.45,3.45,0,0,1-1.71-.43A3.14,3.14,0,0,1,.46,6.94,3.43,3.43,0,0,1,0,5.15V3.42A3.59,3.59,0,0,1,.44,1.64,3.15,3.15,0,0,1,1.66.43,3.44,3.44,0,0,1,3.39,0,3.43,3.43,0,0,1,5.85.86a3.24,3.24,0,0,1,.9,2.41H4.63a1.34,1.34,0,0,0-.33-.93A1.19,1.19,0,0,0,3.39,2a1.23,1.23,0,0,0-.9.34,1.27,1.27,0,0,0-.35,1V5.24A1.24,1.24,0,0,0,3.42,6.56,1.11,1.11,0,0,0,4.66,5.29Z"/><path class="cls-1" d="M13.82.45a3.4,3.4,0,0,1,1.23,1.24,3.33,3.33,0,0,1,.46,1.7V5.18a3.36,3.36,0,0,1-.46,1.7,3.3,3.3,0,0,1-1.23,1.23,3.37,3.37,0,0,1-3.4,0A3.3,3.3,0,0,1,9.19,6.88a3.26,3.26,0,0,1-.46-1.7V3.39a3.24,3.24,0,0,1,.46-1.7A3.4,3.4,0,0,1,10.42.45a3.44,3.44,0,0,1,3.4,0ZM9.56,6.66a3.1,3.1,0,0,0,1.08,1.08,3,3,0,0,0,3,0,3,3,0,0,0,1.07-1.08,2.81,2.81,0,0,0,.4-1.48V3.39a2.81,2.81,0,0,0-.4-1.48,3,3,0,0,0-4-1.08A3,3,0,0,0,9.56,1.91a2.9,2.9,0,0,0-.39,1.48V5.18A2.9,2.9,0,0,0,9.56,6.66Z"/><path class="cls-1" d="M17.54.17H18l2.87,5.07L23.73.17h.44V8.38H17.54ZM18,8h5.76V1.05L21.08,5.72h-.42L18,1Z"/><path class="cls-1" d="M6.71,24.18H6V10.78h5.39a5.37,5.37,0,0,1,2.49.58A4.55,4.55,0,0,1,15.7,13a4.46,4.46,0,0,1,.67,2.45,4.54,4.54,0,0,1-.68,2.44,4.45,4.45,0,0,1-1.86,1.71,5.26,5.26,0,0,1-2.44.52H6.71Zm0-4.78h4.68a4.73,4.73,0,0,0,2-.38,3.94,3.94,0,0,0,0-7.14,4.51,4.51,0,0,0-2-.39H6.71Z"/><path class="cls-1" d="M24.32,10.78h.75l5.51,13.4h-.77L28,19.75H21.4l-1.83,4.43h-.75Zm-2.64,8.28h6l-3-7.36Z"/><path class="cls-1" d="M0,36.67V23.3H.75l9.33,9.08V23.3h.71V36.67Z"/><path class="cls-1" d="M14.69,23.32l4.74,7.14,4.7-7.14H25l-5.21,7.89v5.48h-.71V31.21l-5.22-7.89Z"/></g></g></svg>