<svg xmlns="http://www.w3.org/2000/svg" viewBox="0 0 100 20.3"><defs><style>.cls-1{fill:#ededed;}</style></defs><title>dummy-logo</title><g id="Layer_2" data-name="Layer 2"><g id="Layer_1-2" data-name="Layer 1"><path class="cls-1" d="M0,19.87V0H7.39a7.75,7.75,0,0,1,4,1.08A8.09,8.09,0,0,1,14.31,4,7.72,7.72,0,0,1,15.4,8v3.82a7.7,7.7,0,0,1-1.09,4,8.09,8.09,0,0,1-2.92,2.92,7.75,7.75,0,0,1-4,1.08Z"/><path class="cls-1" d="M24.22,19.22A8.17,8.17,0,0,1,21.3,16.3a7.81,7.81,0,0,1-1.08-4V0h16V12.29a7.81,7.81,0,0,1-1.08,4,8.17,8.17,0,0,1-2.92,2.92,8,8,0,0,1-8,0Z"/><path class="cls-1" d="M41.32,0h1.14l6.93,12.26L56.29,0h1.05V19.85h-16Zm1,18.82H56.29V2.14L49.87,13.43h-1L42.37,2Z"/><path class="cls-1" d="M62.42,0h1.14l6.93,12.26L77.39,0h1V19.85h-16Zm1,18.82H77.39V2.14L71,13.43H70L63.47,2Z"/><path class="cls-1" d="M83.06,0H100L92.07,11.75v8.12H91V11.75Z"/></g></g></svg>