<svg xmlns="http://www.w3.org/2000/svg" width="100" height="19.528" viewBox="0 0 100 19.528">
  <g id="fincheck_logo_white" transform="translate(0.002 0)">
    <g id="Layer_1" data-name="Layer 1" transform="translate(-0.002 0)">
      <path id="Path_2" data-name="Path 2" d="M996.023,76.1l1-.641c.151,1.418.292,2.763.452,4.238l-3.838-1.874.757-.608a4.864,4.864,0,0,0-7.3.537,4.922,4.922,0,1,0,8.047,5.653.9.9,0,0,1,.941-.494c.433.032.861.007,1.3.007-.291,2.06-2.992,4.312-5.442,4.564a6.81,6.81,0,0,1-4.769-12.363A6.9,6.9,0,0,1,996.023,76.1Z" transform="translate(-910.14 -68.377)" fill="#ededed"/>
      <path id="Path_3" data-name="Path 3" d="M986.273,83.2a7.114,7.114,0,0,1-6.845-4.7,7.2,7.2,0,0,1,2.684-8.4,7.284,7.284,0,0,1,9.131.81l1.268-.813.586,5.547-5-2.443.9-.719a4.112,4.112,0,0,0-2.935-.986,4.62,4.62,0,0,0-3.484,1.784,4.563,4.563,0,0,0-.873,3.493,4.463,4.463,0,0,0,1.87,2.98,4.531,4.531,0,0,0,3.5.744,4.479,4.479,0,0,0,2.918-2,1.273,1.273,0,0,1,1.292-.67c.28.02.564.015.863.011.135,0,.269-.005.4-.005h.443l-.062.439c-.316,2.242-3.127,4.619-5.784,4.892A8.658,8.658,0,0,1,986.273,83.2Zm-.1-13.578a6.415,6.415,0,1,0,.891,12.768,6.519,6.519,0,0,0,5-3.791c-.275,0-.556.007-.838-.014a.531.531,0,0,0-.589.318,5.305,5.305,0,1,1-8.679-6.091,5.394,5.394,0,0,1,4.064-2.091,4.793,4.793,0,0,1,3.83,1.53l.27.3-.6.482,2.669,1.3-.31-2.929-.74.474-.219-.226A6.585,6.585,0,0,0,986.17,69.62Z" transform="translate(-905.31 -63.67)" fill="#ededed"/>
      <path id="Path_4" data-name="Path 4" d="M444.173,76.1l1-.641c.151,1.418.292,2.763.452,4.238l-3.838-1.874.757-.608a4.864,4.864,0,0,0-7.3.537,4.922,4.922,0,1,0,8.048,5.653.9.9,0,0,1,.94-.494c.433.032.861.007,1.3.007-.29,2.06-2.992,4.312-5.442,4.564a6.81,6.81,0,0,1-4.769-12.363A6.9,6.9,0,0,1,444.173,76.1Z" transform="translate(-399.821 -68.377)" fill="#ededed"/>
      <path id="Path_5" data-name="Path 5" d="M434.407,83.2a7.121,7.121,0,0,1-6.848-4.7,7.2,7.2,0,0,1,2.684-8.4,7.285,7.285,0,0,1,9.132.81l1.268-.813.587,5.547-5.007-2.444.894-.716a4.119,4.119,0,0,0-2.935-.986,4.62,4.62,0,0,0-3.484,1.784,4.567,4.567,0,0,0-.869,3.491,4.462,4.462,0,0,0,1.87,2.979,4.524,4.524,0,0,0,3.5.744,4.479,4.479,0,0,0,2.918-2,1.274,1.274,0,0,1,1.293-.67c.28.02.563.015.862.011.135,0,.269-.005.4-.005h.443l-.062.439c-.316,2.242-3.127,4.619-5.784,4.892Q434.84,83.2,434.407,83.2ZM434.3,69.62a6.415,6.415,0,1,0,.891,12.768,6.519,6.519,0,0,0,5-3.79c-.275,0-.556.006-.838-.014s-.4.025-.589.318a5.306,5.306,0,1,1-8.679-6.091,5.4,5.4,0,0,1,4.064-2.091,4.786,4.786,0,0,1,3.83,1.53l.27.3-.6.482,2.669,1.3L440,71.406l-.741.474-.218-.226A6.589,6.589,0,0,0,434.3,69.62Z" transform="translate(-394.972 -63.67)" fill="#ededed"/>
      <path id="Path_6" data-name="Path 6" d="M9.906,19.568a5.88,5.88,0,0,1-.034.689,1.538,1.538,0,0,1-.109.443.713.713,0,0,1-.171.246.327.327,0,0,1-.218.081H3.6v4.749H9.019a.365.365,0,0,1,.218.068.567.567,0,0,1,.17.232,1.522,1.522,0,0,1,.11.436,6.9,6.9,0,0,1,0,1.365,1.718,1.718,0,0,1-.11.452.623.623,0,0,1-.17.252.343.343,0,0,1-.218.075H3.6v6.578a.42.42,0,0,1-.081.259.615.615,0,0,1-.294.184,2.612,2.612,0,0,1-.553.116,7.443,7.443,0,0,1-.873.041A7.493,7.493,0,0,1,.933,35.8a2.475,2.475,0,0,1-.552-.116A.66.66,0,0,1,.087,35.5.394.394,0,0,1,0,35.235V19.227a1.089,1.089,0,0,1,.307-.867,1.118,1.118,0,0,1,.757-.266H9.374a.345.345,0,0,1,.218.075.635.635,0,0,1,.171.246,1.646,1.646,0,0,1,.109.457,6.06,6.06,0,0,1,.034.7Z" transform="translate(0.002 -16.732)" fill="#ededed"/>
      <path id="Path_7" data-name="Path 7" d="M168.248,8.292a1.927,1.927,0,0,1-.423,1.434,3.352,3.352,0,0,1-3.132.014,1.864,1.864,0,0,1-.4-1.376,1.973,1.973,0,0,1,.416-1.44,3.3,3.3,0,0,1,3.136-.014A1.855,1.855,0,0,1,168.248,8.292Zm-.26,16.295a.376.376,0,0,1-.081.239.607.607,0,0,1-.28.17,2.4,2.4,0,0,1-.527.1c-.218.023-.5.035-.832.035s-.614-.012-.833-.035a2.408,2.408,0,0,1-.527-.1.6.6,0,0,1-.279-.17.371.371,0,0,1-.082-.239V12.441a.369.369,0,0,1,.085-.24.643.643,0,0,1,.279-.178,2.359,2.359,0,0,1,.527-.116,8.552,8.552,0,0,1,1.665,0,2.349,2.349,0,0,1,.527.116.651.651,0,0,1,.277.178.376.376,0,0,1,.081.239Z" transform="translate(-151.926 -6.029)" fill="#ededed"/>
      <path id="Path_8" data-name="Path 8" d="M270.485,87.441a.376.376,0,0,1-.082.239.6.6,0,0,1-.273.17,2.29,2.29,0,0,1-.527.1c-.226.023-.5.035-.828.035s-.616-.012-.839-.035a2.3,2.3,0,0,1-.527-.1.6.6,0,0,1-.272-.17.371.371,0,0,1-.082-.239V80.495a5.868,5.868,0,0,0-.129-1.392,2.737,2.737,0,0,0-.376-.866,1.676,1.676,0,0,0-.634-.559,1.972,1.972,0,0,0-.908-.2,2.275,2.275,0,0,0-1.324.478,7.149,7.149,0,0,0-1.392,1.392v8.092a.371.371,0,0,1-.082.239.6.6,0,0,1-.279.17,2.408,2.408,0,0,1-.527.1c-.218.023-.5.035-.832.035s-.614-.012-.832-.035a2.4,2.4,0,0,1-.527-.1.607.607,0,0,1-.28-.17.376.376,0,0,1-.082-.239V75.268a.425.425,0,0,1,.068-.239.5.5,0,0,1,.245-.17,1.978,1.978,0,0,1,.465-.1,6.02,6.02,0,0,1,.7-.034,6.355,6.355,0,0,1,.723.034,1.643,1.643,0,0,1,.44.1.506.506,0,0,1,.226.17.424.424,0,0,1,.068.239v1.406a7.782,7.782,0,0,1,2.057-1.638,4.635,4.635,0,0,1,2.177-.546,4.816,4.816,0,0,1,2.094.409,3.675,3.675,0,0,1,1.379,1.112,4.516,4.516,0,0,1,.757,1.644,9.569,9.569,0,0,1,.233,2.266Z" transform="translate(-239.369 -68.884)" fill="#ededed"/>
      <path id="Path_9" data-name="Path 9" d="M646.464,18.533a.368.368,0,0,1-.082.239.592.592,0,0,1-.272.171,2.306,2.306,0,0,1-.527.1c-.226.023-.5.034-.828.034s-.616-.011-.839-.034a2.29,2.29,0,0,1-.527-.1.6.6,0,0,1-.273-.171.372.372,0,0,1-.082-.239V11.59A5.868,5.868,0,0,0,642.9,10.2a2.737,2.737,0,0,0-.376-.866,1.667,1.667,0,0,0-.634-.56,1.977,1.977,0,0,0-.908-.2,2.275,2.275,0,0,0-1.324.478,7.141,7.141,0,0,0-1.392,1.392v8.09a.372.372,0,0,1-.082.239.6.6,0,0,1-.28.171,2.4,2.4,0,0,1-.527.1q-.327.034-.832.034c-.337,0-.614-.011-.832-.034a2.407,2.407,0,0,1-.527-.1.6.6,0,0,1-.279-.171.368.368,0,0,1-.082-.239V.587a.4.4,0,0,1,.088-.246A.609.609,0,0,1,635.2.157a2.315,2.315,0,0,1,.527-.116,8.39,8.39,0,0,1,1.665,0,2.308,2.308,0,0,1,.527.116.616.616,0,0,1,.28.184.4.4,0,0,1,.082.246V7.315a6.553,6.553,0,0,1,1.806-1.3A4.483,4.483,0,0,1,642,5.582a4.821,4.821,0,0,1,2.1.409,3.638,3.638,0,0,1,1.378,1.119,4.583,4.583,0,0,1,.758,1.656,9.879,9.879,0,0,1,.232,2.3Z" transform="translate(-587.053 0)" fill="#ededed"/>
      <path id="Path_10" data-name="Path 10" d="M823.086,80.7a1.33,1.33,0,0,1-.278.928,1,1,0,0,1-.771.3h-7.41a5.041,5.041,0,0,0,.181,1.412,2.7,2.7,0,0,0,.586,1.078,2.559,2.559,0,0,0,1.038.677,4.452,4.452,0,0,0,1.522.232,8.556,8.556,0,0,0,1.58-.129,10.578,10.578,0,0,0,1.181-.287q.5-.157.828-.287a1.529,1.529,0,0,1,.532-.129.4.4,0,0,1,.2.047.354.354,0,0,1,.136.171,1.123,1.123,0,0,1,.075.348q.02.226.02.566,0,.3-.014.512a3.246,3.246,0,0,1-.041.362.893.893,0,0,1-.082.252.912.912,0,0,1-.144.2,1.643,1.643,0,0,1-.484.26,7.691,7.691,0,0,1-1.01.321,13.886,13.886,0,0,1-1.406.272,11.655,11.655,0,0,1-1.693.117,8.949,8.949,0,0,1-2.845-.41,5.051,5.051,0,0,1-2.039-1.242,5.161,5.161,0,0,1-1.222-2.1,9.85,9.85,0,0,1-.4-2.975,9.459,9.459,0,0,1,.423-2.928,6.118,6.118,0,0,1,1.228-2.211,5.284,5.284,0,0,1,1.957-1.385,7.548,7.548,0,0,1,5.213-.026,4.706,4.706,0,0,1,1.781,1.249,5.043,5.043,0,0,1,1.024,1.89,8.236,8.236,0,0,1,.33,2.371Zm-3.33-.983a3.531,3.531,0,0,0-.58-2.272,2.249,2.249,0,0,0-1.918-.828,2.484,2.484,0,0,0-1.139.245,2.328,2.328,0,0,0-.805.662,3.011,3.011,0,0,0-.491.983,4.86,4.86,0,0,0-.2,1.208Z" transform="translate(-750.086 -68.607)" fill="#ededed"/>
      <path id="Path_11" data-name="Path 11" d="M1189.707,18.546a.393.393,0,0,1-.075.239.52.52,0,0,1-.273.164,2.859,2.859,0,0,1-.539.1q-.341.034-.887.034t-.908-.027a3.205,3.205,0,0,1-.573-.089.853.853,0,0,1-.348-.171,1.012,1.012,0,0,1-.218-.286l-4.053-6.414v6.441a.368.368,0,0,1-.082.239.6.6,0,0,1-.279.171,2.4,2.4,0,0,1-.527.1c-.219.023-.5.034-.833.034s-.614-.011-.832-.034a2.4,2.4,0,0,1-.527-.1.594.594,0,0,1-.279-.171.367.367,0,0,1-.083-.239V.587a.4.4,0,0,1,.083-.246.608.608,0,0,1,.279-.184,2.307,2.307,0,0,1,.527-.116,8.4,8.4,0,0,1,1.665,0,2.306,2.306,0,0,1,.527.116.609.609,0,0,1,.279.184.4.4,0,0,1,.082.246V11.274l3.6-4.846a1.523,1.523,0,0,1,.246-.287.94.94,0,0,1,.361-.191,3.116,3.116,0,0,1,.56-.1q.334-.034.853-.034t.853.034a2.815,2.815,0,0,1,.559.1.61.61,0,0,1,.293.171.391.391,0,0,1,.082.253,1.078,1.078,0,0,1-.1.436,2.337,2.337,0,0,1-.307.491l-3.562,4.039,4.121,6.374a3.084,3.084,0,0,1,.239.471A1.034,1.034,0,0,1,1189.707,18.546Z" transform="translate(-1089.707 0)" fill="#ededed"/>
    </g>
  </g>
</svg>
