<svg xmlns="http://www.w3.org/2000/svg" width="100" height="22.863" viewBox="0 0 100 22.863">
  <g id="mirror" transform="translate(-70.772 -189.333)">
    <g id="Layer.2e.2e.2e..2e..-1" transform="translate(70.772 189.333)">
      <path id="Path_12" data-name="Path 12" d="M58.608,56.883V42.73L55.464,56.883H50.471L46.978,42.715V56.883H41.335V34.093h8.481l3.113,11.286,3.059-11.286h8.535v22.79Z" transform="translate(-41.335 -34.021)" fill="#ededed"/>
      <rect id="Rectangle_3" data-name="Rectangle 3" width="7.472" height="16.41" transform="translate(24.783 6.452)" fill="#ededed"/>
      <rect id="Rectangle_4" data-name="Rectangle 4" width="7.472" height="5.319" transform="translate(24.783 0)" fill="#ededed"/>
      <path id="Path_13" data-name="Path 13" d="M294.9,82.668a10.435,10.435,0,0,0-2.263-.15,5.192,5.192,0,0,0-1.717.375,3.275,3.275,0,0,0-1.5,1.377,4.721,4.721,0,0,0-.527,1.8l-.008,6.864h-7.479V76.5H288.1v3.332a7.444,7.444,0,0,1,2.162-2.854,5.209,5.209,0,0,1,3.031-.905c.267,0,.539-.013.807,0a4.8,4.8,0,0,1,.8.08Z" transform="translate(-247.53 -70.074)" fill="#ededed"/>
      <path id="Path_14" data-name="Path 14" d="M401.619,82.668a10.431,10.431,0,0,0-2.263-.15,5.184,5.184,0,0,0-1.717.375,3.276,3.276,0,0,0-1.5,1.377,4.725,4.725,0,0,0-.527,1.8l-.008,6.864h-7.479V76.5h6.688v3.332a7.437,7.437,0,0,1,2.161-2.854,5.211,5.211,0,0,1,3.032-.905c.267,0,.539-.013.807,0a4.8,4.8,0,0,1,.8.08Z" transform="translate(-339.188 -70.074)" fill="#ededed"/>
      <path id="Path_15" data-name="Path 15" d="M667.854,82.668a10.439,10.439,0,0,0-2.263-.15,5.193,5.193,0,0,0-1.717.375,3.273,3.273,0,0,0-1.5,1.377,4.719,4.719,0,0,0-.527,1.8l-.008,6.864H654.36V76.5h6.687v3.332a7.45,7.45,0,0,1,2.162-2.854,5.211,5.211,0,0,1,3.031-.905c.267,0,.539-.013.808,0a4.812,4.812,0,0,1,.805.08Z" transform="translate(-567.854 -70.074)" fill="#ededed"/>
      <path id="Path_16" data-name="Path 16" d="M514.416,80.568a8.093,8.093,0,0,1-.864,3.815,8.006,8.006,0,0,1-2.318,2.73,10.462,10.462,0,0,1-3.393,1.644,14.7,14.7,0,0,1-4.088.559,14.861,14.861,0,0,1-4.13-.559,10.47,10.47,0,0,1-3.393-1.644,7.8,7.8,0,0,1-2.3-2.73,8.25,8.25,0,0,1-.843-3.815,8.149,8.149,0,0,1,.843-3.8,7.839,7.839,0,0,1,2.3-2.713,10.478,10.478,0,0,1,3.393-1.644,14.854,14.854,0,0,1,4.13-.559,14.694,14.694,0,0,1,4.088.559,10.47,10.47,0,0,1,3.393,1.644,7.8,7.8,0,0,1,3.182,6.511m-7.4.082a4.786,4.786,0,0,0-.917-3.277,2.995,2.995,0,0,0-4.473,0,4.781,4.781,0,0,0-.918,3.277,4.778,4.778,0,0,0,.918,3.276,2.994,2.994,0,0,0,4.473,0,4.783,4.783,0,0,0,.917-3.276" transform="translate(-429.342 -66.453)" fill="#ededed"/>
    </g>
  </g>
</svg>
