<svg xmlns="http://www.w3.org/2000/svg" width="100" height="21.969" viewBox="0 0 100 21.969">
  <path id="Path_105" data-name="Path 105" d="M10.14,21.969C4.041,21.969,0,17.487,0,11.021S4.335,0,10.14,0c5.952,0,10.14,4.409,10.14,11.021-.073,6.466-4.041,10.948-10.14,10.948m0-17.634C6.466,4.335,5,7.715,5,10.948s1.69,6.539,5.143,6.539c3.527,0,5.143-3.38,5.143-6.539-.073-3.306-1.543-6.613-5.143-6.613M38.575,15.283c.073,4.041-3.821,6.686-8.45,6.686-9.184,0-8.6-6.833-8.67-7.421h4.923c-.22,2.131,1.984,3.306,3.968,3.306,1.47,0,3.233-.294,3.453-2.2.441-3.821-11.976-1.1-11.976-9.037C21.749,2.351,26.01,0,30.125,0c5.8,0,8.45,3.453,8.45,7.127h-5s.22-2.939-3.527-2.939c-1.47,0-3.086.588-3.306,1.984-.514,3.6,11.683.955,11.83,9.111M53.637,14.4l3.453,6.98H51.8l-3.086-6.613H45.555v6.613H40.705V.588h10.58c3.747,0,6.539,3.086,6.539,7.127A6.771,6.771,0,0,1,53.637,14.4M50.625,5h-5.07V10.58h4.923A2.682,2.682,0,0,0,52.9,7.788C52.9,6.466,52.094,5,50.625,5M73.549,21.381l-1.249-3.6H64.217l-1.249,3.6H57.825L65.32.588H71.2l7.494,20.794H73.549ZM70.9,13.446,68.259,5.878l-2.645,7.568Zm23.879,7.935V10.213l-5,8.156-5-8.156V21.381H79.5V.588h5.217l5,8.45,5.07-8.45H100V21.381H94.783Z" fill="#ededed" fill-rule="evenodd"/>
</svg>
