<svg xmlns="http://www.w3.org/2000/svg" width="100" height="13.995" viewBox="0 0 100 13.995">
  <g id="Group_4" data-name="Group 4" transform="translate(-0.9 -0.2)">
    <path id="Path_18" data-name="Path 18" d="M.9.214v1.5H9.323v.423c.381.028,1.383.141,2.2.254a2.725,2.725,0,0,1,.508.085,1.926,1.926,0,0,1,.818.353c.028.028.071.056.085.1a1.241,1.241,0,0,1,.085.141,3.636,3.636,0,0,1,.24,1.552v4.67a4.769,4.769,0,1,0,9.537,0v-4.7a4.148,4.148,0,0,1,.24-1.552,1.24,1.24,0,0,1,.085-.141c.028-.028.056-.071.085-.1a1.848,1.848,0,0,1,.818-.353q.233-.042.508-.085c.8-.127,1.806-.226,2.2-.254V1.681h8.423V.214ZM34.986,1.5H21.414V9.4a3.372,3.372,0,0,1-6.744,0V1.5H1.1V.426H34.972V1.5h.014ZM39.754.271c.141.014.282.014.423.042s.31.042.48.071c.183-.028.339-.056.494-.071s.282-.028.4-.042V.412a.452.452,0,0,0-.409.226,2.928,2.928,0,0,0-.113,1.044v.169a10.343,10.343,0,0,0,.042,1.1,1.918,1.918,0,0,0,.141.55,1.042,1.042,0,0,0,.4.423,1.17,1.17,0,0,0,.607.141,1.054,1.054,0,0,0,.959-.437,2.956,2.956,0,0,0,.282-1.552V1.47a2.065,2.065,0,0,0-.113-.847.526.526,0,0,0-.466-.212V.271A2.74,2.74,0,0,1,43.211.3c.113.014.254.042.4.071a2.825,2.825,0,0,1,.339-.056C44.057.3,44.17.285,44.3.271V.412A.472.472,0,0,0,43.888.6a1.934,1.934,0,0,0-.1.818v.8A2.639,2.639,0,0,1,43.366,3.9,1.7,1.7,0,0,1,42,4.418a2.44,2.44,0,0,1-.889-.155,1.26,1.26,0,0,1-.564-.48,1.6,1.6,0,0,1-.212-.55,4.831,4.831,0,0,1-.056-.875V1.442A1.971,1.971,0,0,0,40.164.6a.456.456,0,0,0-.409-.183V.271Zm5.968,2.144V1.681A2.517,2.517,0,0,0,45.6.623.621.621,0,0,0,45.116.4V.256c.141.014.254.028.367.042s.212.028.31.042c.1-.028.183-.042.226-.056a.435.435,0,0,1,.127-.014c.1,0,.268.155.522.451l.056.071c.324.4.677.8,1.03,1.213s.734.832,1.129,1.242V1.724A3.189,3.189,0,0,0,48.77.651a.457.457,0,0,0-.437-.24V.271a2.534,2.534,0,0,1,.31.028c.113.014.254.042.409.071.183-.028.324-.056.423-.071a1.928,1.928,0,0,1,.268-.028V.412h-.014a.415.415,0,0,0-.409.353A8.1,8.1,0,0,0,49.207,2.5V4.052c0,.113.014.24.014.353l-.212-.042a1.068,1.068,0,0,0-.212-.014c-.494-.607-.973-1.171-1.439-1.707s-.9-1.03-1.34-1.481v1.03c0,.522.014.917.028,1.171a2.06,2.06,0,0,0,.085.564.334.334,0,0,0,.169.2.986.986,0,0,0,.339.085v.141a3.459,3.459,0,0,1-.381-.028,3.867,3.867,0,0,1-.4-.071c-.169.028-.3.056-.409.071a2.534,2.534,0,0,1-.31.028V4.207a.452.452,0,0,0,.451-.254,4.971,4.971,0,0,0,.113-1.383V2.415h.014ZM50.646.271c.127.014.268.014.437.042s.324.042.508.071c.183-.028.353-.056.508-.071s.3-.028.423-.042V.4a.507.507,0,0,0-.437.212,2.137,2.137,0,0,0-.113.875V3.078a2.309,2.309,0,0,0,.113.9.507.507,0,0,0,.437.212v.141c-.127-.014-.282-.014-.423-.042s-.324-.042-.508-.071q-.317.042-.55.085a2.071,2.071,0,0,1-.4.028V4.193a.507.507,0,0,0,.437-.212,2.137,2.137,0,0,0,.113-.875V1.512a2.309,2.309,0,0,0-.113-.9.551.551,0,0,0-.437-.226V.271Zm2.638,0c.127.014.268.014.409.042s.31.042.48.071c.169-.028.324-.056.466-.071s.268-.028.381-.042V.412a.607.607,0,0,0-.24.071.234.234,0,0,0-.071.169,3.7,3.7,0,0,0,.268.889q.275.72.762,1.82c.282-.72.508-1.3.663-1.764a3.71,3.71,0,0,0,.226-.9.237.237,0,0,0-.085-.2.536.536,0,0,0-.254-.085V.271A2.755,2.755,0,0,1,56.614.3c.113.014.24.042.367.071.127-.028.254-.042.367-.071a2.74,2.74,0,0,1,.339-.028V.412a.759.759,0,0,0-.367.127,1.068,1.068,0,0,0-.282.381c-.1.212-.282.649-.536,1.284s-.536,1.354-.847,2.173h-.31c-.3-.762-.593-1.439-.847-2.032s-.48-1.072-.635-1.4a1.246,1.246,0,0,0-.268-.4A.607.607,0,0,0,53.27.426V.271Zm5.093,0L58.8.313c.141.014.282.042.437.071A4.629,4.629,0,0,1,59.929.3c.254-.014.55-.028.861-.028h.2A1.244,1.244,0,0,1,61.3.3a.112.112,0,0,1,.071.113.153.153,0,0,1-.014.071A.354.354,0,0,1,61.284.6q.021.19.042.3a1,1,0,0,1,.014.2V1.2h-.183a.612.612,0,0,0-.2-.48A1.2,1.2,0,0,0,60.3.6H59.7c0,.141-.014.3-.014.437V2.119h.55a1.116,1.116,0,0,0,.536-.085.383.383,0,0,0,.155-.3h.183a1.571,1.571,0,0,1-.028.24,2.543,2.543,0,0,1-.071.268c.028.113.042.212.056.3a1.571,1.571,0,0,1,.028.24h-.183a.389.389,0,0,0-.155-.31,1.248,1.248,0,0,0-.578-.085h-.522v.847c0,.381.042.621.127.691a1.038,1.038,0,0,0,.593.113,1.334,1.334,0,0,0,.79-.183.879.879,0,0,0,.324-.593h.183a1.641,1.641,0,0,1-.071.409A2.194,2.194,0,0,1,61.5,4l.042.085a.179.179,0,0,1,.014.085.165.165,0,0,1-.113.155,2.174,2.174,0,0,1-.564.042h-.254c-.31,0-.578-.014-.8-.028a3.633,3.633,0,0,1-.607-.1,3.282,3.282,0,0,1-.466.085c-.141.014-.282.028-.4.042V4.221a.507.507,0,0,0,.437-.212,2.6,2.6,0,0,0,.113-.988V1.554a2.309,2.309,0,0,0-.113-.9A.507.507,0,0,0,58.349.44V.271Zm6.8,2.017a7.549,7.549,0,0,0,.889,1.5,1.011,1.011,0,0,0,.734.409h.042v.141c-.071.014-.141.014-.183.028h-.141a2.547,2.547,0,0,1-.635-.071,1.228,1.228,0,0,1-.423-.226,3.076,3.076,0,0,1-.621-.931l-.183-.367a.609.609,0,0,0-.55-.254h-.2v.55a2.348,2.348,0,0,0,.113.917.507.507,0,0,0,.437.212v.141a2.384,2.384,0,0,1-.423-.042c-.155-.014-.324-.042-.494-.071-.212.042-.4.056-.536.085s-.268.028-.4.028V4.193a.537.537,0,0,0,.437-.2,2.137,2.137,0,0,0,.113-.875V1.54a2.348,2.348,0,0,0-.113-.917.564.564,0,0,0-.466-.212V.285c.141,0,.282.014.423.028s.282.042.437.071A3.352,3.352,0,0,1,63.964.3c.169-.014.353-.028.522-.028a1.837,1.837,0,0,1,1.1.268.9.9,0,0,1,.381.776.935.935,0,0,1-.212.607,1.112,1.112,0,0,1-.578.367Zm-1.27.014c.085.014.155.014.226.028H64.3A.788.788,0,0,0,64.91,2.1a.915.915,0,0,0,.226-.635A1.067,1.067,0,0,0,64.9.736a.9.9,0,0,0-.677-.268,1.842,1.842,0,0,0-.24.014H63.95V.51c-.014.367-.014.649-.014.818V2.3h-.028Zm3.753,1.989a1.057,1.057,0,0,1,.056-.226,1.242,1.242,0,0,1,.071-.212c-.028-.141-.042-.254-.056-.367a2.39,2.39,0,0,1-.014-.31V3.036h.2a1.34,1.34,0,0,0,.31.847,1,1,0,0,0,.762.31.909.909,0,0,0,.593-.2.67.67,0,0,0,.226-.522.638.638,0,0,0-.183-.48,2.254,2.254,0,0,0-.734-.423,2.493,2.493,0,0,1-.9-.55.916.916,0,0,1-.24-.663,1.038,1.038,0,0,1,.381-.832,1.525,1.525,0,0,1,1-.324,2.207,2.207,0,0,1,.494.056,1.905,1.905,0,0,0,.339.056.151.151,0,0,0,.085-.028A.11.11,0,0,0,70.1.228l.183.014a.913.913,0,0,1-.056.183.979.979,0,0,1-.071.183,1.928,1.928,0,0,1,.028.268,1.534,1.534,0,0,1,.014.254V1.3h-.183a.94.94,0,0,0-.254-.649.818.818,0,0,0-.607-.24A.729.729,0,0,0,68.62.6a.581.581,0,0,0-.2.48c0,.324.339.621,1.016.9l.028.014a2.284,2.284,0,0,1,.832.536,1.018,1.018,0,0,1,.24.677,1.076,1.076,0,0,1-.423.875,1.708,1.708,0,0,1-1.1.339,2.113,2.113,0,0,1-.635-.1,2.966,2.966,0,0,0-.367-.1.2.2,0,0,0-.1.028.13.13,0,0,0-.056.085l-.2-.042ZM71.569.271c.127.014.268.014.437.042s.324.042.508.071c.183-.028.353-.056.508-.071s.3-.028.423-.042V.4a.507.507,0,0,0-.437.212,2.137,2.137,0,0,0-.113.875V3.078a2.31,2.31,0,0,0,.113.9.507.507,0,0,0,.437.212v.141c-.127-.014-.282-.014-.423-.042s-.324-.042-.508-.071q-.317.042-.55.085c-.141.014-.282.028-.4.028V4.193a.507.507,0,0,0,.437-.212,2.137,2.137,0,0,0,.113-.875V1.512a2.31,2.31,0,0,0-.113-.9.551.551,0,0,0-.437-.226Zm3.739,3.95c-.169.028-.339.056-.48.071l-.437.042V4.193a.537.537,0,0,0,.437-.2,2.137,2.137,0,0,0,.113-.875V1.484a2.137,2.137,0,0,0-.113-.875A.507.507,0,0,0,74.39.4V.271a2.153,2.153,0,0,1,.423.042c.155.014.31.042.494.071.212-.042.409-.071.593-.1s.367-.028.55-.028a2.694,2.694,0,0,1,1.792.55,1.866,1.866,0,0,1,.649,1.51,1.838,1.838,0,0,1-.649,1.5,2.614,2.614,0,0,1-1.764.55c-.169,0-.339-.014-.508-.028a5.92,5.92,0,0,1-.663-.113ZM75.7,2.7c0,.48,0,.8.014.945a.9.9,0,0,0,.042.282.313.313,0,0,0,.212.183,1.291,1.291,0,0,0,.466.056A1.489,1.489,0,0,0,77.607,3.7a1.881,1.881,0,0,0,.423-1.312A2.053,2.053,0,0,0,77.565.948,1.69,1.69,0,0,0,76.253.44a1.8,1.8,0,0,0-.282.014c-.085.014-.155.014-.226.028-.014.155-.028.353-.028.578s-.014.508-.014.818ZM81.459.2H81.9l.79,2.032c.042.127.113.3.2.508.367.973.691,1.453.959,1.453v.141c-.169-.014-.437-.042-.8-.1l-.085-.014c-.183.028-.339.056-.48.071s-.268.028-.4.042V4.193a.76.76,0,0,0,.3-.071.184.184,0,0,0,.1-.169,1.123,1.123,0,0,0-.056-.3c-.042-.141-.1-.324-.183-.55l-.113-.31H80.767l-.113.268c-.085.212-.141.4-.2.55a2.024,2.024,0,0,0-.071.339.21.21,0,0,0,.085.183.56.56,0,0,0,.268.071v.141a2.755,2.755,0,0,1-.324-.028c-.113-.014-.24-.042-.381-.071-.141.028-.268.056-.381.071a2.755,2.755,0,0,1-.324.028V4.207h.028c.31,0,.663-.508,1.086-1.524.085-.2.141-.353.183-.451Zm0,.79c-.113.254-.212.508-.31.762s-.2.522-.3.79h1.185c-.1-.3-.2-.564-.3-.818s-.2-.494-.282-.734Zm3.866,3.231c-.169.028-.339.056-.48.071l-.437.042V4.193a.537.537,0,0,0,.437-.2,2.137,2.137,0,0,0,.113-.875V1.484a2.137,2.137,0,0,0-.113-.875A.507.507,0,0,0,84.407.4V.271a2.153,2.153,0,0,1,.423.042c.155.014.31.042.494.071.212-.042.409-.071.593-.1s.367-.028.55-.028a2.694,2.694,0,0,1,1.792.55,1.866,1.866,0,0,1,.649,1.51,1.838,1.838,0,0,1-.649,1.5,2.614,2.614,0,0,1-1.764.55c-.169,0-.339-.014-.508-.028a5.92,5.92,0,0,1-.663-.113Zm.4-1.524c0,.48,0,.8.014.945a.9.9,0,0,0,.042.282.313.313,0,0,0,.212.183,1.291,1.291,0,0,0,.466.056A1.489,1.489,0,0,0,87.624,3.7a1.881,1.881,0,0,0,.423-1.312A2.053,2.053,0,0,0,87.582.948,1.69,1.69,0,0,0,86.27.44a1.8,1.8,0,0,0-.282.014c-.085.014-.155.014-.226.028-.014.155-.028.353-.028.578s-.014.508-.014.818ZM89.867.271l.423.042c.141.014.282.042.437.071A4.629,4.629,0,0,1,91.419.3c.254-.014.55-.028.861-.028h.2a1.244,1.244,0,0,1,.31.028.112.112,0,0,1,.071.113.153.153,0,0,1-.014.071A.354.354,0,0,1,92.774.6q.021.19.042.3a1,1,0,0,1,.014.2V1.2h-.169a.612.612,0,0,0-.2-.48A1.2,1.2,0,0,0,91.8.6h-.593c0,.141-.014.3-.014.437V2.119h.55a1.116,1.116,0,0,0,.536-.085.383.383,0,0,0,.155-.3h.183a1.57,1.57,0,0,1-.028.24,2.54,2.54,0,0,1-.071.268c.028.113.042.212.056.3a1.572,1.572,0,0,1,.028.24h-.183a.389.389,0,0,0-.155-.31,1.248,1.248,0,0,0-.578-.085h-.522v.847c0,.381.042.621.127.691a1.038,1.038,0,0,0,.593.113,1.334,1.334,0,0,0,.79-.183A.879.879,0,0,0,93,3.262h.183a1.641,1.641,0,0,1-.071.409A2.193,2.193,0,0,1,93,4l.042.085a.179.179,0,0,1,.014.085.165.165,0,0,1-.113.155,2.174,2.174,0,0,1-.564.042h-.254c-.31,0-.578-.014-.8-.028a3.633,3.633,0,0,1-.607-.1,3.282,3.282,0,0,1-.466.085c-.141.014-.282.028-.4.042V4.221a.507.507,0,0,0,.437-.212,2.6,2.6,0,0,0,.113-.988V1.554a2.31,2.31,0,0,0-.113-.9A.507.507,0,0,0,89.853.44V.271h.014Zm-43.2,6.151.254.1a3.983,3.983,0,0,1-.127.423c-.042.127-.071.226-.113.324.028.254.056.494.071.734s.014.451.014.677h-.381A2.133,2.133,0,0,0,45.736,7.2a2.2,2.2,0,0,0-1.552-.522,2.511,2.511,0,0,0-2.06.959,4.019,4.019,0,0,0-.762,2.582,3.92,3.92,0,0,0,.818,2.6,2.638,2.638,0,0,0,2.13.973,2.457,2.457,0,0,0,1.538-.437,1.861,1.861,0,0,0,.691-1.242h.381c-.014.183-.042.353-.071.536s-.071.367-.113.55c.028.127.042.212.056.282a.745.745,0,0,1,.014.169,4.428,4.428,0,0,1-1.2.409,6.864,6.864,0,0,1-1.453.141,4.951,4.951,0,0,1-3.3-1.044,3.515,3.515,0,0,1-1.213-2.822,3.7,3.7,0,0,1,1.227-2.906,4.662,4.662,0,0,1,3.245-1.1,7.45,7.45,0,0,1,1.453.141c.494.1.762.141.79.141a.353.353,0,0,0,.183-.042,1.029,1.029,0,0,0,.127-.141Zm10.426,3.809a3.765,3.765,0,0,1-1.157,2.836,4.379,4.379,0,0,1-5.869,0,3.765,3.765,0,0,1-1.157-2.836,3.755,3.755,0,0,1,1.157-2.822,4.42,4.42,0,0,1,5.869,0A3.734,3.734,0,0,1,57.094,10.231ZM53,13.815a2.011,2.011,0,0,0,1.749-.973,4.613,4.613,0,0,0,.663-2.61,4.533,4.533,0,0,0-.663-2.6A2,2,0,0,0,53,6.676a2.029,2.029,0,0,0-1.749.959,4.565,4.565,0,0,0-.649,2.6,4.553,4.553,0,0,0,.649,2.61A2.011,2.011,0,0,0,53,13.815Zm5.446-7.393c.24.014.522.042.8.071s.607.085.945.141c.339-.056.649-.1.945-.141s.564-.056.8-.071v.254a.942.942,0,0,0-.818.4,3.833,3.833,0,0,0-.212,1.637v3.005a4.115,4.115,0,0,0,.212,1.693.968.968,0,0,0,.818.409v.254c-.254-.014-.522-.042-.8-.071s-.607-.085-.945-.141c-.409.071-.748.113-1.03.141s-.522.056-.734.071v-.254a.942.942,0,0,0,.818-.4,3.869,3.869,0,0,0,.212-1.651V8.778a4.115,4.115,0,0,0-.212-1.693.968.968,0,0,0-.818-.409V6.422h.014Zm5.291,7.633V13.8a1.363,1.363,0,0,0,.593-.2.938.938,0,0,0,.282-.466,14.5,14.5,0,0,0,.24-2.046l.014-.169c.042-.607.085-1.157.113-1.665s.042-.945.042-1.312a1.625,1.625,0,0,0-.2-.988,1.482,1.482,0,0,0-.847-.254V6.45c.183.014.4.028.607.056s.48.056.8.113c.226-.056.4-.1.48-.127a1.932,1.932,0,0,1,.226-.028c.183,0,.367.2.564.607a.831.831,0,0,1,.056.113c.607,1.256,1.086,2.257,1.453,2.991s.705,1.4,1.03,1.975c.607-1.284,1.256-2.681,1.933-4.2q.254-.593.339-.762c.014-.042.042-.1.071-.169.155-.353.31-.522.48-.522a4,4,0,0,1,.55.113l.085.014c.268-.042.508-.085.72-.113s.4-.042.536-.056V6.7a.873.873,0,0,0-.649.24,2.588,2.588,0,0,0-.155,1.171v.353c0,.113.014.24.014.381l.127,2.92a5.088,5.088,0,0,0,.254,1.707.757.757,0,0,0,.734.353v.254a6.876,6.876,0,0,1-.72-.071,6.652,6.652,0,0,1-.818-.141c-.31.056-.593.1-.846.141s-.494.056-.734.071v-.254a.72.72,0,0,0,.635-.282,2.232,2.232,0,0,0,.169-1.072c0-.071,0-.2-.014-.381s-.014-.409-.028-.691l-.056-1.9q-.021-.614-.042-.931t-.042-.593c-.48.988-.959,1.989-1.411,3.005s-.889,2.046-1.326,3.1h-.367c-.423-.917-.875-1.862-1.369-2.85S66.25,9.2,65.671,8.087c-.071,1.016-.113,1.9-.155,2.652s-.056,1.312-.056,1.679a1.957,1.957,0,0,0,.212,1.1.974.974,0,0,0,.776.31v.254c-.2-.014-.423-.028-.649-.056a6.779,6.779,0,0,1-.705-.127c-.254.056-.494.085-.72.127-.24,0-.437.014-.635.028Zm13.234-3.076v-2.2a4.115,4.115,0,0,0-.212-1.693,1.013,1.013,0,0,0-.818-.423V6.408c.212.014.437.028.691.056s.564.085.945.155c.381-.085.734-.155,1.072-.2a7.907,7.907,0,0,1,.973-.071A3,3,0,0,1,81.4,6.8a1.479,1.479,0,0,1,.621,1.27,1.533,1.533,0,0,1-.451,1.115,2.5,2.5,0,0,1-1.3.635v.071a3.141,3.141,0,0,1,1.749.621,1.793,1.793,0,0,1,.607,1.4,1.861,1.861,0,0,1-.776,1.594,3.634,3.634,0,0,1-2.187.564,8.172,8.172,0,0,1-1.016-.056,9.548,9.548,0,0,1-1.044-.183c-.4.071-.72.113-.973.155a6.734,6.734,0,0,1-.705.056v-.254a.97.97,0,0,0,.818-.381,3.869,3.869,0,0,0,.212-1.651v-.776h.014Zm1.411-.832V11.67a3.676,3.676,0,0,0,.226,1.707,1,1,0,0,0,.861.31,1.508,1.508,0,0,0,1.143-.451,1.743,1.743,0,0,0,.423-1.242,1.674,1.674,0,0,0-.564-1.4,2.58,2.58,0,0,0-1.693-.466h-.183c-.071,0-.141.014-.212.014Zm.014-.4a1,1,0,0,1,.2.014h.31A1.853,1.853,0,0,0,80.161,9.4a1.463,1.463,0,0,0,.409-1.143,1.445,1.445,0,0,0-.423-1.1,1.57,1.57,0,0,0-1.157-.409,1.8,1.8,0,0,0-.3.014l-.24.042c-.014.113-.014.24-.028.381s-.014.353-.014.635V9.751H78.4Zm10.468.48a14.582,14.582,0,0,0,1.679,2.808,1.88,1.88,0,0,0,1.383.762H92v.254c-.141.014-.254.028-.353.042s-.183.014-.268.014a4.459,4.459,0,0,1-1.185-.127,2.042,2.042,0,0,1-.8-.437,5.918,5.918,0,0,1-1.171-1.735c-.155-.31-.268-.536-.353-.677a1.107,1.107,0,0,0-1.016-.466,2.621,2.621,0,0,1-.367-.014v1.03a4.19,4.19,0,0,0,.212,1.721.942.942,0,0,0,.818.4v.254c-.254-.014-.522-.028-.8-.071s-.593-.085-.931-.141c-.409.071-.748.113-1.016.155a7.241,7.241,0,0,1-.734.056V13.8a.97.97,0,0,0,.818-.381,3.833,3.833,0,0,0,.212-1.637V8.806a3.954,3.954,0,0,0-.226-1.735,1.027,1.027,0,0,0-.861-.4V6.422c.254.014.522.028.79.056s.536.071.818.127a7.757,7.757,0,0,1,.973-.155c.324-.028.649-.056.988-.056a3.627,3.627,0,0,1,2.074.494,1.7,1.7,0,0,1,.705,1.467A1.8,1.8,0,0,1,89.938,9.5,2.125,2.125,0,0,1,88.866,10.231Zm-2.384.014c.155.014.3.028.409.042a2.391,2.391,0,0,0,.31.014,1.458,1.458,0,0,0,1.143-.437,1.652,1.652,0,0,0,.409-1.2A1.988,1.988,0,0,0,88.3,7.282a1.689,1.689,0,0,0-1.284-.494,4.506,4.506,0,0,0-.466.042H86.5v.056c-.014.705-.014,1.213-.014,1.552v1.806Zm9.932-3.95h.818L98.713,10.1c.085.226.212.55.367.959.691,1.82,1.3,2.737,1.806,2.737h.014v.254c-.31-.014-.818-.085-1.51-.183l-.155-.014c-.339.056-.649.1-.917.127s-.508.056-.734.071V13.8a1.185,1.185,0,0,0,.55-.141.373.373,0,0,0,.183-.324,2.908,2.908,0,0,0-.113-.564,10.651,10.651,0,0,0-.339-1.03l-.212-.578c-.212,0-.409,0-.607-.014h-1.34c-.2,0-.409,0-.607.014l-.2.508a10.559,10.559,0,0,0-.367,1.044,2.483,2.483,0,0,0-.141.635.419.419,0,0,0,.155.353,1.031,1.031,0,0,0,.522.127v.254a4.713,4.713,0,0,1-.607-.071,5.188,5.188,0,0,1-.705-.141c-.254.056-.494.1-.72.141s-.423.056-.607.071v-.254h.042c.578,0,1.256-.959,2.032-2.864.155-.367.268-.649.353-.861Zm0,1.5-.593,1.439c-.2.494-.381.973-.564,1.467.254,0,.494,0,.72.014h1.171A2.833,2.833,0,0,0,97.5,10.7c-.2-.55-.381-1.058-.55-1.538-.2-.466-.367-.931-.536-1.369ZM99.729.849A2.614,2.614,0,0,0,97.965.3c-.169,0-.353.014-.536.028a3.827,3.827,0,0,0-.536.085h-.071C96.653.383,96.5.355,96.357.341s-.282-.028-.423-.028V.454a.48.48,0,0,1,.423.212,2.222,2.222,0,0,1,.113.889V3.346a1.518,1.518,0,0,1-.1.607.507.507,0,0,1-.437.212v.141c.056,0,.127-.014.2-.014a1.571,1.571,0,0,0,.24-.028c.155-.014.31-.042.48-.071.042.014.085.014.127.028.212.042.381.071.522.085.169.014.339.028.508.028a2.6,2.6,0,0,0,1.749-.55,1.861,1.861,0,0,0,.635-1.481A1.961,1.961,0,0,0,99.729.849ZM99.08,3.7a1.478,1.478,0,0,1-1.157.466,1.253,1.253,0,0,1-.451-.056.32.32,0,0,1-.2-.183,1.734,1.734,0,0,1-.042-.282c-.014-.141-.014-.451-.014-.931V2.387H97.6a1.177,1.177,0,0,1,.564.085.383.383,0,0,1,.141.31h.169a1.57,1.57,0,0,0-.028-.24,2.49,2.49,0,0,0-.056-.282,2.293,2.293,0,0,0,.056-.268,1.391,1.391,0,0,0,.028-.24H98.3a.383.383,0,0,1-.155.3,1.116,1.116,0,0,1-.536.085H97.2v-.2c0-.31,0-.578.014-.8s.014-.423.028-.578a1.1,1.1,0,0,1,.226-.028A1.62,1.62,0,0,1,97.74.51,1.648,1.648,0,0,1,99.024,1a2.065,2.065,0,0,1,.451,1.411A1.7,1.7,0,0,1,99.08,3.7Z" fill="#ededed"/>
  </g>
</svg>
