<svg xmlns="http://www.w3.org/2000/svg" width="100" height="100.002" viewBox="0 0 100 100.002">
  <g id="w-symbol" transform="translate(0.001 0.003)">
    <g id="Artboard1" transform="translate(99.999 99.999) rotate(180)">
      <g id="Group_1" data-name="Group 1" transform="translate(0.155 0.003)">
        <rect id="Rectangle_5" data-name="Rectangle 5" width="99.842" height="99.999" fill="none"/>
      </g>
      <g id="Group_3" data-name="Group 3" transform="translate(99.998 99.998) rotate(180)">
        <g id="Group_2" data-name="Group 2" transform="translate(0 0)">
          <path id="Path_17" data-name="Path 17" d="M99.345,0a.651.651,0,0,0-.651.653V98.693H94.948L75.315.526A.653.653,0,0,0,74.674,0H69.739A.654.654,0,0,0,69.1.526L49.465,98.692H45.719V.654A.654.654,0,0,0,45.065,0H.652A.652.652,0,0,0,0,.654V99.343A.653.653,0,0,0,.652,100h44.4l.009,0H50a.653.653,0,0,0,.64-.525L70.274,1.306h3.864L93.771,99.473a.651.651,0,0,0,.639.525h4.935a.654.654,0,0,0,.654-.654V.654A.652.652,0,0,0,99.345,0Z" fill="#ededed"/>
        </g>
      </g>
    </g>
    <g id="Artboard2" transform="translate(-0.001 -0.001)">
      <rect id="Rectangle_6" data-name="Rectangle 6" width="99.995" height="99.997" fill="none"/>
    </g>
  </g>
</svg>
